<svg xmlns="http://www.w3.org/2000/svg" version="1.1" xmlns:xlink="http://www.w3.org/1999/xlink" width="1500" height="218" viewBox="0 0 1500 218"><svg xml:space="preserve" width="1500" height="218" data-version="2" data-id="lg_MLkA5smAQKIcKGdDrH" viewBox="0 0 438 218" x="0" y="0"><rect width="100%" height="100%" fill="transparent"></rect><path fill="#5168b6" d="M272.883 29.018 218.988 2.07l-53.882 26.948 53.882 26.947z"></path><path fill="#5168b6" d="m218.988 65.857-33.245-16.629-20.637 6.737L218.988 82.9l53.895-26.934-18.946-7.15z"></path><path fill="#5168b6" d="m218.988 92.806-33.245-16.63-20.637 6.724 53.882 26.961 53.895-26.96-18.946-7.15zM43.65 181.321v11.84H4.69v-67.64h38.96v11.75H19.03v14.85h22.9v11.76h-22.9v17.44zm29.38 12.77q-8.66 0-14.09-6.78-5.44-6.78-5.44-19.92 0-13.28 5.51-20.1 5.5-6.82 14.39-6.82 3.7 0 6.52 1.01 2.82 1.02 4.88 2.73t3.49 3.84h.47q-.28-1.48-.67-4.37-.4-2.89-.4-5.94v-16.57h14.16v71.99H91.02l-2.73-6.7h-.6q-1.34 2.12-3.35 3.86-2.01 1.73-4.79 2.75-2.78 1.02-6.52 1.02m4.95-11.24q5.78 0 8.16-3.45 2.39-3.45 2.52-10.39v-1.52q0-7.55-2.31-11.55-2.31-4-8.61-4-4.67 0-7.31 4.02-2.63 4.03-2.63 11.62 0 7.59 2.66 11.43t7.52 3.84m71.99-41.41h14.11v51.72h-10.83l-1.89-6.61h-.74q-1.67 2.63-4.17 4.3t-5.5 2.45q-3.01.79-6.25.79-5.55 0-9.67-1.97-4.12-1.96-6.41-6.13-2.29-4.16-2.29-10.82v-33.73h14.11v30.21q0 5.55 1.99 8.37 1.99 2.83 6.34 2.83 4.3 0 6.76-1.97 2.45-1.97 3.44-5.78 1-3.82 1-9.33zm89.66-.97q8.79 0 13.31 4.51 4.51 4.51 4.51 14.45v33.73h-14.16v-30.21q0-5.55-1.9-8.37-1.89-2.83-5.87-2.83-5.6 0-7.96 4.01-2.36 4-2.36 11.45v25.95h-14.11v-30.21q0-3.7-.84-6.2-.83-2.5-2.54-3.75t-4.4-1.25q-3.93 0-6.17 1.97-2.25 1.97-3.19 5.78-.95 3.82-.95 9.33v24.33h-14.11v-51.72h10.78l1.89 6.61h.79q1.57-2.68 3.95-4.35 2.39-1.66 5.26-2.45 2.86-.78 5.83-.78 5.69 0 9.64 1.85 3.96 1.85 6.09 5.73h1.25q2.31-3.98 6.54-5.78 4.24-1.8 8.72-1.8m45.44 52.32-20.54-51.35h15.45l9.76 29.1q.46 1.39.79 2.82.32 1.44.55 2.96.23 1.53.37 3.19h.28q.28-2.49.76-4.67.49-2.17 1.23-4.3l9.58-29.1h15.13l-21.89 58.34q-1.99 5.37-5.18 8.95-3.19 3.59-7.33 5.39-4.14 1.81-9.09 1.81-2.41 0-4.17-.26-1.76-.25-3.01-.53v-11.2q.98.24 2.46.42 1.48.19 3.1.19 2.96 0 5.09-1.25 2.12-1.25 3.56-3.36 1.43-2.1 2.27-4.6zm70.14-52.32q8.28 0 13.32 4.51 5.05 4.51 5.05 14.45v33.73h-14.11v-30.21q0-5.55-2.02-8.37-2.01-2.83-6.31-2.83-6.48 0-8.84 4.4-2.36 4.4-2.36 12.68v24.33h-14.11v-51.72h10.78l1.9 6.61h.78q1.67-2.68 4.14-4.35 2.48-1.66 5.51-2.45 3.03-.78 6.27-.78m49.27 53.62q-8.65 0-14.08-6.78-5.44-6.78-5.44-19.92 0-13.28 5.51-20.1 5.5-6.82 14.38-6.82 3.71 0 6.53 1.01 2.82 1.02 4.88 2.73t3.49 3.84h.47q-.28-1.48-.68-4.37-.39-2.89-.39-5.94v-16.57h14.16v71.99h-10.83l-2.73-6.7h-.6q-1.34 2.12-3.35 3.86-2.02 1.73-4.79 2.75-2.78 1.02-6.53 1.02m4.96-11.24q5.78 0 8.16-3.45t2.52-10.39v-1.52q0-7.55-2.31-11.55-2.31-4-8.61-4-4.67 0-7.31 4.02-2.63 4.03-2.63 11.62 0 7.59 2.66 11.43t7.52 3.84"></path></svg></svg>